<mxfile host="Electron" modified="2025-07-16T07:25:43.023Z" agent="Mozilla/5.0 (Macintosh; Intel Mac OS X 10_15_7) AppleWebKit/537.36 (KHTML, like Gecko) draw.io/24.6.4 Chrome/124.0.6367.207 Electron/30.0.6 Safari/537.36" etag="pA9ZGa988RSqFMpJIBqo" version="24.6.4" type="device">
  <diagram name="Seite-1" id="nLIdblTM4b5d5QgqWRVC">
    <mxGraphModel dx="2725" dy="1233" grid="1" gridSize="10" guides="1" tooltips="1" connect="1" arrows="1" fold="1" page="1" pageScale="1" pageWidth="827" pageHeight="1169" math="0" shadow="0">
      <root>
        <mxCell id="0" />
        <mxCell id="1" parent="0" />
        <mxCell id="pSblH8NbGgSqnyUGxn-O-60" value="" style="rounded=0;whiteSpace=wrap;html=1;" vertex="1" parent="1">
          <mxGeometry x="1050" y="1150" width="270" height="170" as="geometry" />
        </mxCell>
        <mxCell id="pSblH8NbGgSqnyUGxn-O-35" value="VM&amp;nbsp;" style="rounded=0;whiteSpace=wrap;html=1;" vertex="1" parent="1">
          <mxGeometry x="-90" y="600" width="530" height="280" as="geometry" />
        </mxCell>
        <mxCell id="pSblH8NbGgSqnyUGxn-O-1" value="CDN&lt;div&gt;&lt;br&gt;&lt;/div&gt;&lt;div&gt;&lt;b&gt;C&lt;/b&gt;ontent &lt;b&gt;D&lt;/b&gt;elivery &lt;b&gt;N&lt;/b&gt;etwork&lt;/div&gt;&lt;div&gt;&lt;br&gt;&lt;/div&gt;&lt;div&gt;AWS: &lt;b&gt;CloudFront&amp;nbsp;&lt;/b&gt;&lt;/div&gt;&lt;div&gt;&lt;br&gt;&lt;/div&gt;" style="text;html=1;align=center;verticalAlign=middle;whiteSpace=wrap;rounded=0;" vertex="1" parent="1">
          <mxGeometry x="430" y="40" width="290" height="150" as="geometry" />
        </mxCell>
        <mxCell id="pSblH8NbGgSqnyUGxn-O-2" value="User" style="shape=umlActor;verticalLabelPosition=bottom;verticalAlign=top;html=1;outlineConnect=0;" vertex="1" parent="1">
          <mxGeometry x="-110" y="230" width="30" height="60" as="geometry" />
        </mxCell>
        <mxCell id="pSblH8NbGgSqnyUGxn-O-11" style="edgeStyle=orthogonalEdgeStyle;rounded=0;orthogonalLoop=1;jettySize=auto;html=1;" edge="1" parent="1" source="pSblH8NbGgSqnyUGxn-O-8" target="pSblH8NbGgSqnyUGxn-O-10">
          <mxGeometry relative="1" as="geometry" />
        </mxCell>
        <mxCell id="pSblH8NbGgSqnyUGxn-O-8" value="" style="shape=cylinder3;whiteSpace=wrap;html=1;boundedLbl=1;backgroundOutline=1;size=15;" vertex="1" parent="1">
          <mxGeometry y="740" width="60" height="80" as="geometry" />
        </mxCell>
        <mxCell id="pSblH8NbGgSqnyUGxn-O-13" style="edgeStyle=orthogonalEdgeStyle;rounded=0;orthogonalLoop=1;jettySize=auto;html=1;" edge="1" parent="1" source="pSblH8NbGgSqnyUGxn-O-10" target="pSblH8NbGgSqnyUGxn-O-12">
          <mxGeometry relative="1" as="geometry" />
        </mxCell>
        <mxCell id="pSblH8NbGgSqnyUGxn-O-10" value="Server A" style="rounded=1;whiteSpace=wrap;html=1;" vertex="1" parent="1">
          <mxGeometry y="630" width="120" height="60" as="geometry" />
        </mxCell>
        <mxCell id="pSblH8NbGgSqnyUGxn-O-12" value="NET" style="ellipse;shape=cloud;whiteSpace=wrap;html=1;" vertex="1" parent="1">
          <mxGeometry x="40" y="390" width="150" height="100" as="geometry" />
        </mxCell>
        <mxCell id="pSblH8NbGgSqnyUGxn-O-16" value="Serie 1&lt;div&gt;Serie 2&lt;/div&gt;&lt;div&gt;Film 3&lt;/div&gt;&lt;div&gt;Film 4&lt;/div&gt;" style="shape=note;whiteSpace=wrap;html=1;backgroundOutline=1;darkOpacity=0.05;" vertex="1" parent="1">
          <mxGeometry x="140" y="750" width="80" height="100" as="geometry" />
        </mxCell>
        <mxCell id="pSblH8NbGgSqnyUGxn-O-17" style="edgeStyle=orthogonalEdgeStyle;rounded=0;orthogonalLoop=1;jettySize=auto;html=1;entryX=1;entryY=0;entryDx=0;entryDy=52.5;entryPerimeter=0;" edge="1" parent="1" source="pSblH8NbGgSqnyUGxn-O-16" target="pSblH8NbGgSqnyUGxn-O-8">
          <mxGeometry relative="1" as="geometry" />
        </mxCell>
        <mxCell id="pSblH8NbGgSqnyUGxn-O-18" value="Serie 1&lt;div&gt;&lt;br&gt;&lt;/div&gt;" style="shape=note;whiteSpace=wrap;html=1;backgroundOutline=1;darkOpacity=0.05;" vertex="1" parent="1">
          <mxGeometry x="-30" y="150" width="80" height="100" as="geometry" />
        </mxCell>
        <mxCell id="pSblH8NbGgSqnyUGxn-O-19" value="User" style="shape=umlActor;verticalLabelPosition=bottom;verticalAlign=top;html=1;outlineConnect=0;" vertex="1" parent="1">
          <mxGeometry x="270" y="190" width="30" height="60" as="geometry" />
        </mxCell>
        <mxCell id="pSblH8NbGgSqnyUGxn-O-20" value="Film 3&lt;div&gt;&lt;br&gt;&lt;/div&gt;" style="shape=note;whiteSpace=wrap;html=1;backgroundOutline=1;darkOpacity=0.05;" vertex="1" parent="1">
          <mxGeometry x="350" y="170" width="80" height="100" as="geometry" />
        </mxCell>
        <mxCell id="pSblH8NbGgSqnyUGxn-O-22" value="CPU&amp;nbsp;&lt;div&gt;RAM&lt;/div&gt;&lt;div&gt;Festplatte&lt;/div&gt;" style="rounded=0;whiteSpace=wrap;html=1;" vertex="1" parent="1">
          <mxGeometry x="170" y="640" width="120" height="60" as="geometry" />
        </mxCell>
        <mxCell id="pSblH8NbGgSqnyUGxn-O-23" style="edgeStyle=orthogonalEdgeStyle;rounded=0;orthogonalLoop=1;jettySize=auto;html=1;entryX=0.983;entryY=0.633;entryDx=0;entryDy=0;entryPerimeter=0;" edge="1" parent="1" source="pSblH8NbGgSqnyUGxn-O-22" target="pSblH8NbGgSqnyUGxn-O-10">
          <mxGeometry relative="1" as="geometry" />
        </mxCell>
        <mxCell id="pSblH8NbGgSqnyUGxn-O-25" style="edgeStyle=orthogonalEdgeStyle;rounded=0;orthogonalLoop=1;jettySize=auto;html=1;" edge="1" parent="1" source="pSblH8NbGgSqnyUGxn-O-24">
          <mxGeometry relative="1" as="geometry">
            <mxPoint x="120" y="520" as="targetPoint" />
          </mxGeometry>
        </mxCell>
        <mxCell id="pSblH8NbGgSqnyUGxn-O-24" value="Traffic&amp;nbsp;&lt;div&gt;Mbit / sec&lt;/div&gt;&lt;div&gt;GBit /&amp;nbsp;&lt;/div&gt;" style="rounded=0;whiteSpace=wrap;html=1;" vertex="1" parent="1">
          <mxGeometry x="180" y="520" width="120" height="60" as="geometry" />
        </mxCell>
        <mxCell id="pSblH8NbGgSqnyUGxn-O-26" value="" style="ellipse;shape=cloud;whiteSpace=wrap;html=1;" vertex="1" parent="1">
          <mxGeometry x="150" y="340" width="120" height="80" as="geometry" />
        </mxCell>
        <mxCell id="pSblH8NbGgSqnyUGxn-O-27" value="CDN" style="shape=cylinder3;whiteSpace=wrap;html=1;boundedLbl=1;backgroundOutline=1;size=15;" vertex="1" parent="1">
          <mxGeometry x="190" y="360" width="50" height="60" as="geometry" />
        </mxCell>
        <mxCell id="pSblH8NbGgSqnyUGxn-O-28" style="edgeStyle=orthogonalEdgeStyle;rounded=0;orthogonalLoop=1;jettySize=auto;html=1;entryX=0.325;entryY=0.075;entryDx=0;entryDy=0;entryPerimeter=0;" edge="1" parent="1" source="pSblH8NbGgSqnyUGxn-O-2" target="pSblH8NbGgSqnyUGxn-O-26">
          <mxGeometry relative="1" as="geometry" />
        </mxCell>
        <mxCell id="pSblH8NbGgSqnyUGxn-O-29" style="edgeStyle=orthogonalEdgeStyle;rounded=0;orthogonalLoop=1;jettySize=auto;html=1;entryX=0.4;entryY=0.1;entryDx=0;entryDy=0;entryPerimeter=0;" edge="1" parent="1" source="pSblH8NbGgSqnyUGxn-O-26" target="pSblH8NbGgSqnyUGxn-O-12">
          <mxGeometry relative="1" as="geometry" />
        </mxCell>
        <mxCell id="pSblH8NbGgSqnyUGxn-O-30" style="edgeStyle=orthogonalEdgeStyle;rounded=0;orthogonalLoop=1;jettySize=auto;html=1;entryX=0.625;entryY=0.2;entryDx=0;entryDy=0;entryPerimeter=0;" edge="1" parent="1" source="pSblH8NbGgSqnyUGxn-O-19" target="pSblH8NbGgSqnyUGxn-O-26">
          <mxGeometry relative="1" as="geometry" />
        </mxCell>
        <mxCell id="pSblH8NbGgSqnyUGxn-O-31" value="Serie 1&lt;div&gt;&lt;br&gt;&lt;/div&gt;" style="shape=note;whiteSpace=wrap;html=1;backgroundOutline=1;darkOpacity=0.05;" vertex="1" parent="1">
          <mxGeometry x="300" y="350" width="80" height="100" as="geometry" />
        </mxCell>
        <mxCell id="pSblH8NbGgSqnyUGxn-O-32" style="edgeStyle=orthogonalEdgeStyle;rounded=0;orthogonalLoop=1;jettySize=auto;html=1;entryX=0.8;entryY=0.8;entryDx=0;entryDy=0;entryPerimeter=0;" edge="1" parent="1" source="pSblH8NbGgSqnyUGxn-O-31" target="pSblH8NbGgSqnyUGxn-O-26">
          <mxGeometry relative="1" as="geometry" />
        </mxCell>
        <mxCell id="pSblH8NbGgSqnyUGxn-O-33" value="" style="ellipse;shape=cloud;whiteSpace=wrap;html=1;" vertex="1" parent="1">
          <mxGeometry x="-10" y="270" width="120" height="80" as="geometry" />
        </mxCell>
        <mxCell id="pSblH8NbGgSqnyUGxn-O-34" value="" style="ellipse;shape=cloud;whiteSpace=wrap;html=1;" vertex="1" parent="1">
          <mxGeometry x="380" y="300" width="120" height="80" as="geometry" />
        </mxCell>
        <mxCell id="pSblH8NbGgSqnyUGxn-O-36" value="Hypervisor&lt;div&gt;Virtualbox / Parallels / Multipass&lt;/div&gt;&lt;div&gt;VMWare /&amp;nbsp;&lt;/div&gt;" style="rounded=0;whiteSpace=wrap;html=1;" vertex="1" parent="1">
          <mxGeometry x="-90" y="990" width="1410" height="110" as="geometry" />
        </mxCell>
        <mxCell id="pSblH8NbGgSqnyUGxn-O-37" value="Hardware" style="rounded=0;whiteSpace=wrap;html=1;" vertex="1" parent="1">
          <mxGeometry x="-90" y="1100" width="1410" height="50" as="geometry" />
        </mxCell>
        <mxCell id="pSblH8NbGgSqnyUGxn-O-38" value="RAM" style="rounded=0;whiteSpace=wrap;html=1;" vertex="1" parent="1">
          <mxGeometry x="440" y="1240" width="120" height="60" as="geometry" />
        </mxCell>
        <mxCell id="pSblH8NbGgSqnyUGxn-O-46" value="Server 1" style="rounded=0;whiteSpace=wrap;html=1;fillColor=#f8cecc;strokeColor=#b85450;" vertex="1" parent="1">
          <mxGeometry x="-90" y="1150" width="390" height="170" as="geometry" />
        </mxCell>
        <mxCell id="pSblH8NbGgSqnyUGxn-O-48" value="Server 2" style="rounded=0;whiteSpace=wrap;html=1;" vertex="1" parent="1">
          <mxGeometry x="300" y="1150" width="390" height="170" as="geometry" />
        </mxCell>
        <mxCell id="pSblH8NbGgSqnyUGxn-O-49" value="Server 3" style="rounded=0;whiteSpace=wrap;html=1;" vertex="1" parent="1">
          <mxGeometry x="660" y="1150" width="390" height="170" as="geometry" />
        </mxCell>
        <mxCell id="pSblH8NbGgSqnyUGxn-O-50" value="CPU" style="rounded=0;whiteSpace=wrap;html=1;" vertex="1" parent="1">
          <mxGeometry x="-80" y="1260" width="120" height="60" as="geometry" />
        </mxCell>
        <mxCell id="pSblH8NbGgSqnyUGxn-O-51" value="CPU" style="rounded=0;whiteSpace=wrap;html=1;" vertex="1" parent="1">
          <mxGeometry x="670" y="1260" width="120" height="60" as="geometry" />
        </mxCell>
        <mxCell id="pSblH8NbGgSqnyUGxn-O-52" value="CPU" style="rounded=0;whiteSpace=wrap;html=1;" vertex="1" parent="1">
          <mxGeometry x="310" y="1260" width="120" height="60" as="geometry" />
        </mxCell>
        <mxCell id="pSblH8NbGgSqnyUGxn-O-53" value="RAM" style="rounded=0;whiteSpace=wrap;html=1;" vertex="1" parent="1">
          <mxGeometry x="55" y="1260" width="120" height="60" as="geometry" />
        </mxCell>
        <mxCell id="pSblH8NbGgSqnyUGxn-O-54" value="RAM" style="rounded=0;whiteSpace=wrap;html=1;" vertex="1" parent="1">
          <mxGeometry x="440" y="1260" width="120" height="60" as="geometry" />
        </mxCell>
        <mxCell id="pSblH8NbGgSqnyUGxn-O-55" value="RAM" style="rounded=0;whiteSpace=wrap;html=1;" vertex="1" parent="1">
          <mxGeometry x="800" y="1260" width="120" height="60" as="geometry" />
        </mxCell>
        <mxCell id="pSblH8NbGgSqnyUGxn-O-56" value="" style="shape=cylinder3;whiteSpace=wrap;html=1;boundedLbl=1;backgroundOutline=1;size=15;" vertex="1" parent="1">
          <mxGeometry x="1070" y="1180" width="60" height="80" as="geometry" />
        </mxCell>
        <mxCell id="pSblH8NbGgSqnyUGxn-O-58" value="" style="shape=cylinder3;whiteSpace=wrap;html=1;boundedLbl=1;backgroundOutline=1;size=15;" vertex="1" parent="1">
          <mxGeometry x="1160" y="1180" width="60" height="80" as="geometry" />
        </mxCell>
        <mxCell id="pSblH8NbGgSqnyUGxn-O-59" value="" style="shape=cylinder3;whiteSpace=wrap;html=1;boundedLbl=1;backgroundOutline=1;size=15;" vertex="1" parent="1">
          <mxGeometry x="1250" y="1180" width="60" height="80" as="geometry" />
        </mxCell>
        <mxCell id="pSblH8NbGgSqnyUGxn-O-63" style="edgeStyle=orthogonalEdgeStyle;rounded=0;orthogonalLoop=1;jettySize=auto;html=1;" edge="1" parent="1" source="pSblH8NbGgSqnyUGxn-O-61" target="pSblH8NbGgSqnyUGxn-O-35">
          <mxGeometry relative="1" as="geometry" />
        </mxCell>
        <mxCell id="pSblH8NbGgSqnyUGxn-O-61" value="CPU" style="rounded=0;whiteSpace=wrap;html=1;" vertex="1" parent="1">
          <mxGeometry x="80" y="930" width="120" height="60" as="geometry" />
        </mxCell>
        <mxCell id="pSblH8NbGgSqnyUGxn-O-64" style="edgeStyle=orthogonalEdgeStyle;rounded=0;orthogonalLoop=1;jettySize=auto;html=1;entryX=0.5;entryY=1;entryDx=0;entryDy=0;" edge="1" parent="1" source="pSblH8NbGgSqnyUGxn-O-62" target="pSblH8NbGgSqnyUGxn-O-35">
          <mxGeometry relative="1" as="geometry" />
        </mxCell>
        <mxCell id="pSblH8NbGgSqnyUGxn-O-62" value="RAM" style="rounded=0;whiteSpace=wrap;html=1;" vertex="1" parent="1">
          <mxGeometry x="200" y="930" width="120" height="60" as="geometry" />
        </mxCell>
        <mxCell id="pSblH8NbGgSqnyUGxn-O-65" value="Linux Kernel" style="ellipse;whiteSpace=wrap;html=1;aspect=fixed;" vertex="1" parent="1">
          <mxGeometry x="290" y="740" width="80" height="80" as="geometry" />
        </mxCell>
      </root>
    </mxGraphModel>
  </diagram>
</mxfile>
